<svg viewBox="2 0 30 30" fill="none" xmlns="http://www.w3.org/2000/svg">
<path fill-rule="evenodd" clip-rule="evenodd" d="M32 15C32 23.2843 25.2843 30 17 30C8.71573 30 2 23.2843 2 15C2 6.71573 8.71573 0 17 0C25.2843 0 32 6.71573 32 15ZM16.7656 7.96852C20.003 7.96852 22.625 10.6227 22.625 13.893C22.625 16.502 21.5369 18.6271 19.3192 20.2443C16.0581 22.6249 13.1834 22.4986 13.1834 22.4986C13.1834 22.4986 15.3624 20.5929 13.7363 18.9638C12.1191 17.3467 10.9062 16.0091 10.9062 13.893C10.9062 10.6196 13.5282 7.96852 16.7656 7.96852Z" fill="black"/>
</svg>
